<?xml version="1.0" encoding="UTF-8" standalone="no"?>
<!DOCTYPE svg PUBLIC "-//W3C//DTD SVG 1.1//EN"
 "http://www.w3.org/Graphics/SVG/1.1/DTD/svg11.dtd">
<!-- Generated by graphviz version 2.47.3 (20210619.1520)
 -->
<!-- Title: workflow Pages: 1 -->
<svg width="747pt" height="224pt"
 viewBox="0.00 0.00 747.00 223.64" xmlns="http://www.w3.org/2000/svg" xmlns:xlink="http://www.w3.org/1999/xlink">
<g id="graph0" class="graph" transform="scale(1 1) rotate(0) translate(4 219.64)">
<title>workflow</title>
<polygon fill="white" stroke="transparent" points="-4,4 -4,-219.64 743,-219.64 743,4 -4,4"/>
<!-- place_7b231a50a498ef151e291795f46f56bee569eae5 -->
<g id="node1" class="node">
<title>place_7b231a50a498ef151e291795f46f56bee569eae5</title>
<ellipse fill="lightblue" stroke="#333333" cx="36" cy="-120.64" rx="36" ry="36"/>
<text text-anchor="middle" x="36" y="-118.44" font-family="Arial" font-size="9.00">available</text>
</g>
<!-- place_96ddd9d6114dfcef860f94e9fa9745b5b3514b48 -->
<g id="node2" class="node">
<title>place_96ddd9d6114dfcef860f94e9fa9745b5b3514b48</title>
<ellipse fill="none" stroke="#333333" cx="253" cy="-58.64" rx="36" ry="36"/>
<text text-anchor="middle" x="253" y="-56.44" font-family="Arial" font-size="9.00">lent</text>
</g>
<!-- place_7b231a50a498ef151e291795f46f56bee569eae5&#45;&gt;place_96ddd9d6114dfcef860f94e9fa9745b5b3514b48 -->
<g id="edge1" class="edge">
<title>place_7b231a50a498ef151e291795f46f56bee569eae5&#45;&gt;place_96ddd9d6114dfcef860f94e9fa9745b5b3514b48</title>
<path fill="none" stroke="#333333" d="M59.05,-92.67C67.68,-83.73 78.32,-74.82 90,-69.64 128.78,-52.47 177.93,-51.68 211.87,-53.95"/>
<polygon fill="#333333" stroke="#333333" points="212.07,-55.72 217.18,-54.34 212.32,-52.23 212.07,-55.72"/>
<text text-anchor="middle" x="123" y="-72.44" font-family="Arial" font-size="9.00">add_to_agenda</text>
</g>
<!-- place_afbacf58fcce38f6e77f24895136630a3ec24e8f -->
<g id="node3" class="node">
<title>place_afbacf58fcce38f6e77f24895136630a3ec24e8f</title>
<ellipse fill="none" stroke="#333333" cx="510" cy="-130.64" rx="36" ry="36"/>
<text text-anchor="middle" x="510" y="-128.44" font-family="Arial" font-size="9.00">to_repair</text>
</g>
<!-- place_7b231a50a498ef151e291795f46f56bee569eae5&#45;&gt;place_afbacf58fcce38f6e77f24895136630a3ec24e8f -->
<g id="edge3" class="edge">
<title>place_7b231a50a498ef151e291795f46f56bee569eae5&#45;&gt;place_afbacf58fcce38f6e77f24895136630a3ec24e8f</title>
<path fill="none" stroke="#333333" d="M68.2,-137.4C75.18,-140.4 82.69,-143.07 90,-144.64 249,-178.97 294.69,-165.59 456,-144.64 460.64,-144.04 465.46,-143.15 470.21,-142.11"/>
<polygon fill="#333333" stroke="#333333" points="470.85,-143.76 475.33,-140.93 470.06,-140.35 470.85,-143.76"/>
<text text-anchor="middle" x="253" y="-168.44" font-family="Arial" font-size="9.00">mark_as_to_be_repaired_after_check</text>
</g>
<!-- place_6f01ce7a3deaec83e0a023733fa439c3b3c0abe7 -->
<g id="node4" class="node">
<title>place_6f01ce7a3deaec83e0a023733fa439c3b3c0abe7</title>
<ellipse fill="pink" stroke="#333333" cx="703" cy="-179.64" rx="36" ry="36"/>
<text text-anchor="middle" x="703" y="-177.44" font-family="Arial" font-size="9.00">irreparable</text>
</g>
<!-- place_7b231a50a498ef151e291795f46f56bee569eae5&#45;&gt;place_6f01ce7a3deaec83e0a023733fa439c3b3c0abe7 -->
<g id="edge2" class="edge">
<title>place_7b231a50a498ef151e291795f46f56bee569eae5&#45;&gt;place_6f01ce7a3deaec83e0a023733fa439c3b3c0abe7</title>
<path fill="none" stroke="purple" d="M61.83,-145.74C70.16,-152.87 79.91,-159.96 90,-164.64 124.4,-180.62 136.22,-176.3 174,-179.64 355.51,-195.72 573.51,-186.83 661.87,-182.05"/>
<polygon fill="purple" stroke="purple" points="662.1,-183.79 667,-181.77 661.91,-180.3 662.1,-183.79"/>
<text text-anchor="middle" x="403" y="-191.44" font-family="Arial" font-size="9.00" fill="purple">write_off_after_check</text>
</g>
<!-- place_2010281d5053cc58bfd1e227e18c25a20f335f33 -->
<g id="node5" class="node">
<title>place_2010281d5053cc58bfd1e227e18c25a20f335f33</title>
<ellipse fill="pink" stroke="#333333" cx="703" cy="-58.64" rx="36" ry="36"/>
<text text-anchor="middle" x="703" y="-56.44" font-family="Arial" font-size="9.00">lost</text>
</g>
<!-- place_7b231a50a498ef151e291795f46f56bee569eae5&#45;&gt;place_2010281d5053cc58bfd1e227e18c25a20f335f33 -->
<g id="edge4" class="edge">
<title>place_7b231a50a498ef151e291795f46f56bee569eae5&#45;&gt;place_2010281d5053cc58bfd1e227e18c25a20f335f33</title>
<path fill="none" stroke="purple" d="M54.88,-89.72C64,-76.03 76.1,-60.59 90,-49.64 121.91,-24.51 134.21,-21.81 174,-13.64 354.43,23.39 575.6,-25.03 663.41,-47.89"/>
<polygon fill="purple" stroke="purple" points="662.97,-49.58 668.25,-49.16 663.86,-46.2 662.97,-49.58"/>
<text text-anchor="middle" x="403" y="-10.44" font-family="Arial" font-size="9.00" fill="purple">lose_from_available</text>
</g>
<!-- place_96ddd9d6114dfcef860f94e9fa9745b5b3514b48&#45;&gt;place_7b231a50a498ef151e291795f46f56bee569eae5 -->
<g id="edge5" class="edge">
<title>place_96ddd9d6114dfcef860f94e9fa9745b5b3514b48&#45;&gt;place_7b231a50a498ef151e291795f46f56bee569eae5</title>
<path fill="none" stroke="#333333" d="M218.09,-68.42C179.47,-79.56 116.49,-97.72 75.9,-109.43"/>
<polygon fill="#333333" stroke="#333333" points="75.39,-107.75 71.07,-110.82 76.36,-111.12 75.39,-107.75"/>
<text text-anchor="middle" x="123" y="-106.44" font-family="Arial" font-size="9.00">return</text>
</g>
<!-- place_96ddd9d6114dfcef860f94e9fa9745b5b3514b48&#45;&gt;place_afbacf58fcce38f6e77f24895136630a3ec24e8f -->
<g id="edge6" class="edge">
<title>place_96ddd9d6114dfcef860f94e9fa9745b5b3514b48&#45;&gt;place_afbacf58fcce38f6e77f24895136630a3ec24e8f</title>
<path fill="none" stroke="#333333" d="M288.52,-64.75C329.2,-72.42 398.53,-87.01 456,-106.64 461.53,-108.53 467.26,-110.79 472.82,-113.16"/>
<polygon fill="#333333" stroke="#333333" points="472.17,-114.78 477.45,-115.17 473.56,-111.57 472.17,-114.78"/>
<text text-anchor="middle" x="403" y="-109.44" font-family="Arial" font-size="9.00">mark_as_to_be_repaired</text>
</g>
<!-- place_96ddd9d6114dfcef860f94e9fa9745b5b3514b48&#45;&gt;place_2010281d5053cc58bfd1e227e18c25a20f335f33 -->
<g id="edge7" class="edge">
<title>place_96ddd9d6114dfcef860f94e9fa9745b5b3514b48&#45;&gt;place_2010281d5053cc58bfd1e227e18c25a20f335f33</title>
<path fill="none" stroke="purple" d="M289.15,-58.64C371.16,-58.64 574.75,-58.64 661.65,-58.64"/>
<polygon fill="purple" stroke="purple" points="661.7,-60.39 666.7,-58.64 661.7,-56.89 661.7,-60.39"/>
<text text-anchor="middle" x="510" y="-61.44" font-family="Arial" font-size="9.00" fill="purple">lose_from_lent</text>
</g>
<!-- place_afbacf58fcce38f6e77f24895136630a3ec24e8f&#45;&gt;place_7b231a50a498ef151e291795f46f56bee569eae5 -->
<g id="edge8" class="edge">
<title>place_afbacf58fcce38f6e77f24895136630a3ec24e8f&#45;&gt;place_7b231a50a498ef151e291795f46f56bee569eae5</title>
<path fill="none" stroke="purple" d="M474,-129.9C388.23,-128.09 167.96,-123.42 77.1,-121.49"/>
<polygon fill="purple" stroke="purple" points="77.13,-119.74 72.09,-121.39 77.05,-123.24 77.13,-119.74"/>
<text text-anchor="middle" x="253" y="-129.44" font-family="Arial" font-size="9.00" fill="purple">repair</text>
</g>
<!-- place_afbacf58fcce38f6e77f24895136630a3ec24e8f&#45;&gt;place_6f01ce7a3deaec83e0a023733fa439c3b3c0abe7 -->
<g id="edge9" class="edge">
<title>place_afbacf58fcce38f6e77f24895136630a3ec24e8f&#45;&gt;place_6f01ce7a3deaec83e0a023733fa439c3b3c0abe7</title>
<path fill="none" stroke="purple" d="M545.15,-139.4C578.18,-147.88 628.2,-160.71 662.83,-169.6"/>
<polygon fill="purple" stroke="purple" points="662.55,-171.33 667.83,-170.88 663.42,-167.94 662.55,-171.33"/>
<text text-anchor="middle" x="606.5" y="-167.44" font-family="Arial" font-size="9.00" fill="purple">write_off</text>
</g>
<!-- place_afbacf58fcce38f6e77f24895136630a3ec24e8f&#45;&gt;place_2010281d5053cc58bfd1e227e18c25a20f335f33 -->
<g id="edge10" class="edge">
<title>place_afbacf58fcce38f6e77f24895136630a3ec24e8f&#45;&gt;place_2010281d5053cc58bfd1e227e18c25a20f335f33</title>
<path fill="none" stroke="purple" d="M543.83,-118.27C577.18,-105.7 628.77,-86.25 663.9,-73.01"/>
<polygon fill="purple" stroke="purple" points="664.89,-74.5 668.96,-71.1 663.66,-71.23 664.89,-74.5"/>
<text text-anchor="middle" x="606.5" y="-111.44" font-family="Arial" font-size="9.00" fill="purple">lose_from_to_repair</text>
</g>
</g>
</svg>
